<svg xmlns="http://www.w3.org/2000/svg" viewBox="0 0 48 48">
  <rect width="48" height="48" rx="10" fill="#132347"/>
  <g transform="translate(0,-1)">
    <path d="M17 13.5a4 4 0 0 1 4-4h6a4 4 0 0 1 4 4V16h-3.6v-2.2a1.2 1.2 0 0 0-1.2-1.2h-4.4a1.2 1.2 0 0 0-1.2 1.2V16H17z" fill="#fff"/>
    <rect x="7"  y="28" width="11.3" height="12" rx="2.5" fill="#22b49a"/>
    <rect x="18" y="28" width="12"   height="12" rx="2.5" fill="#7c4dd6"/>
    <rect x="29.7" y="28" width="11.3" height="12" rx="2.5" fill="#f59331"/>
    <rect x="15" y="28" width="18" height="12" fill="#7c4dd6"/>
    <rect x="7"  y="28" width="11.3" height="6" fill="#22b49a"/>
    <rect x="29.7" y="28" width="11.3" height="6" fill="#f59331"/>
    <path d="M7 18.5A2.5 2.5 0 0 1 9.5 16h29a2.5 2.5 0 0 1 2.5 2.5V30H7z" fill="#1b6bf0"/>
    <g>
      <rect x="17.5" y="22.7" width="13" height="2.6" fill="#fff"/>
      <circle cx="17.5" cy="24" r="4.1" fill="none" stroke="#fff" stroke-width="2.6"/>
      <circle cx="30.5" cy="24" r="4.1" fill="none" stroke="#fff" stroke-width="2.6"/>
      <rect x="11.9" y="22.4" width="3.4" height="3.2" fill="#1b6bf0"/>
      <rect x="32.7" y="22.4" width="3.4" height="3.2" fill="#1b6bf0"/>
    </g>
  </g>
</svg>
